<svg width="258" height="112" viewBox="0 0 258 112" fill="none" xmlns="http://www.w3.org/2000/svg">
<g filter="url(#filter0_i_224_1004)">
<path d="M7 0H254C256.209 0 258 1.79086 258 4V56H7V0Z" fill="#9E8D5F" fill-opacity="0.7"/>
</g>
<g clip-path="url(#clip0_224_1004)">
<path d="M118.25 21.3332H117.458V20.4998C117.458 20.2788 117.375 20.0669 117.226 19.9106C117.078 19.7543 116.877 19.6665 116.667 19.6665C116.457 19.6665 116.255 19.7543 116.107 19.9106C115.958 20.0669 115.875 20.2788 115.875 20.4998V21.3332H111.125V20.4998C111.125 20.2788 111.042 20.0669 110.893 19.9106C110.745 19.7543 110.543 19.6665 110.333 19.6665C110.123 19.6665 109.922 19.7543 109.774 19.9106C109.625 20.0669 109.542 20.2788 109.542 20.4998V21.3332H108.75C108.12 21.3332 107.516 21.5966 107.071 22.0654C106.625 22.5342 106.375 23.1701 106.375 23.8332V33.8332C106.375 34.4962 106.625 35.1321 107.071 35.6009C107.516 36.0698 108.12 36.3332 108.75 36.3332H118.25C118.88 36.3332 119.484 36.0698 119.929 35.6009C120.375 35.1321 120.625 34.4962 120.625 33.8332V23.8332C120.625 23.1701 120.375 22.5342 119.929 22.0654C119.484 21.5966 118.88 21.3332 118.25 21.3332ZM108.75 22.9998H109.542V23.8332C109.542 24.0542 109.625 24.2661 109.774 24.4224C109.922 24.5787 110.123 24.6665 110.333 24.6665C110.543 24.6665 110.745 24.5787 110.893 24.4224C111.042 24.2661 111.125 24.0542 111.125 23.8332V22.9998H115.875V23.8332C115.875 24.0542 115.958 24.2661 116.107 24.4224C116.255 24.5787 116.457 24.6665 116.667 24.6665C116.877 24.6665 117.078 24.5787 117.226 24.4224C117.375 24.2661 117.458 24.0542 117.458 23.8332V22.9998H118.25C118.46 22.9998 118.661 23.0876 118.81 23.2439C118.958 23.4002 119.042 23.6122 119.042 23.8332V27.1665H107.958V23.8332C107.958 23.6122 108.042 23.4002 108.19 23.2439C108.339 23.0876 108.54 22.9998 108.75 22.9998ZM118.25 34.6665H108.75C108.54 34.6665 108.339 34.5787 108.19 34.4224C108.042 34.2661 107.958 34.0542 107.958 33.8332V28.8332H119.042V33.8332C119.042 34.0542 118.958 34.2661 118.81 34.4224C118.661 34.5787 118.46 34.6665 118.25 34.6665Z" fill="black"/>
<path d="M110.333 32.1667C110.771 32.1667 111.125 31.7936 111.125 31.3333C111.125 30.8731 110.771 30.5 110.333 30.5C109.896 30.5 109.542 30.8731 109.542 31.3333C109.542 31.7936 109.896 32.1667 110.333 32.1667Z" fill="black"/>
<path d="M116.667 30.5H113.5C113.29 30.5 113.089 30.5878 112.94 30.7441C112.792 30.9004 112.708 31.1123 112.708 31.3333C112.708 31.5543 112.792 31.7663 112.94 31.9226C113.089 32.0789 113.29 32.1667 113.5 32.1667H116.667C116.877 32.1667 117.078 32.0789 117.226 31.9226C117.375 31.7663 117.458 31.5543 117.458 31.3333C117.458 31.1123 117.375 30.9004 117.226 30.7441C117.078 30.5878 116.877 30.5 116.667 30.5Z" fill="black"/>
</g>
<path d="M178 27L183.5 32L189 27" stroke="black" stroke-width="2" stroke-linecap="round" stroke-linejoin="round"/>
<defs>
<filter id="filter0_i_224_1004" x="7" y="0" width="251" height="56" filterUnits="userSpaceOnUse" color-interpolation-filters="sRGB">
<feFlood flood-opacity="0" result="BackgroundImageFix"/>
<feBlend mode="normal" in="SourceGraphic" in2="BackgroundImageFix" result="shape"/>
<feColorMatrix in="SourceAlpha" type="matrix" values="0 0 0 0 0 0 0 0 0 0 0 0 0 0 0 0 0 0 127 0" result="hardAlpha"/>
<feOffset dy="-2"/>
<feComposite in2="hardAlpha" operator="arithmetic" k2="-1" k3="1"/>
<feColorMatrix type="matrix" values="0 0 0 0 0 0 0 0 0 0 0 0 0 0 0 0 0 0 0.25 0"/>
<feBlend mode="normal" in2="shape" result="effect1_innerShadow_224_1004"/>
</filter>
<clipPath id="clip0_224_1004">
<rect width="19" height="20" fill="white" transform="translate(104 18)"/>
</clipPath>
</defs>
</svg>
