<svg width="1283" height="479" viewBox="0 0 1283 479" fill="none" xmlns="http://www.w3.org/2000/svg">
<path d="M1113.13 173.25L1100.13 181.328L1103.66 166.253L1092.1 156.173L1107.28 154.935L1113.13 140.625L1118.98 154.935L1134.17 156.173L1122.6 166.253L1126.13 181.328L1113.13 173.25Z" fill="#BDBDBD"/>
<path d="M1160.91 173.25L1147.9 181.328L1151.44 166.253L1139.87 156.173L1155.06 154.935L1160.91 140.625L1166.76 154.935L1181.94 156.173L1170.37 166.253L1173.91 181.328L1160.91 173.25Z" fill="#BDBDBD"/>
<path d="M1208.68 173.25L1195.68 181.328L1199.22 166.253L1187.65 156.173L1202.83 154.935L1208.68 140.625L1214.53 154.935L1229.72 156.173L1218.15 166.253L1221.68 181.328L1208.68 173.25Z" fill="#BDBDBD"/>
<path d="M1256.46 173.25L1243.46 181.328L1246.99 166.253L1235.42 156.173L1250.61 154.935L1256.46 140.625L1262.31 154.935L1277.49 156.173L1265.92 166.253L1269.46 181.328L1256.46 173.25Z" fill="#BDBDBD"/>
<path d="M1065.8 173.25L1052.8 181.328L1056.34 166.253L1044.77 156.173L1059.95 154.935L1065.8 140.625L1071.65 154.935L1086.84 156.173L1075.27 166.253L1078.8 181.328L1065.8 173.25Z" fill="#BDBDBD"/>
</svg>
