<svg width="157" height="18" viewBox="0 0 157 18" fill="none" xmlns="http://www.w3.org/2000/svg">
<path d="M147.536 10.7715C147.536 8.73372 149.021 7.71484 151.989 7.71484C152.686 7.71484 153.383 7.77995 154.079 7.91016V7.13867C154.079 6.2207 153.418 5.76172 152.097 5.76172C150.977 5.76172 149.734 5.92448 148.366 6.25V4.19922C149.734 3.8737 150.977 3.71094 152.097 3.71094C155.144 3.71094 156.667 4.83724 156.667 7.08984V13.9648H155.163L154.245 13.0469C153.353 13.6589 152.37 13.9648 151.296 13.9648C148.79 13.9648 147.536 12.9004 147.536 10.7715ZM154.079 9.66797C153.428 9.53776 152.732 9.47266 151.989 9.47266C150.746 9.47266 150.124 9.89583 150.124 10.7422C150.124 11.6536 150.645 12.1094 151.687 12.1094C152.546 12.1094 153.344 11.8424 154.079 11.3086V9.66797Z" fill="#1A1A1A"/>
<path d="M137.805 13.4766V11.3281C138.944 11.7839 140.26 12.0117 141.75 12.0117C142.864 12.0117 143.42 11.6536 143.42 10.9375C143.42 10.2539 143.046 9.91211 142.297 9.91211H140.442C138.358 9.91211 137.317 8.88672 137.317 6.83594C137.317 4.6875 138.837 3.61328 141.877 3.61328C143.166 3.61328 144.381 3.80859 145.52 4.19922V6.34766C144.381 5.89193 143.144 5.66406 141.809 5.66406C140.409 5.66406 139.709 6.02214 139.709 6.73828C139.709 7.42188 140.116 7.76367 140.93 7.76367H142.59C144.869 7.76367 146.008 8.78906 146.008 10.8398C146.008 12.9883 144.556 14.0625 141.653 14.0625C140.227 14.0625 138.944 13.8672 137.805 13.4766Z" fill="#1A1A1A"/>
<path d="M135.154 0V2.05078H132.566V0H135.154ZM135.154 3.71094V13.9648H132.566V3.71094H135.154Z" fill="#1A1A1A"/>
<path d="M115.032 13.9648V0H117.718L122.454 10.5957L127.093 0H129.68V13.9648H127.288V4.23828L123.499 13.9648H121.292L117.425 4.23828V13.9648H115.032Z" fill="#1A1A1A"/>
<path d="M104.954 6.03516C104.531 5.87891 103.929 5.80078 103.148 5.80078C101.357 5.80078 100.462 6.78711 100.462 8.75977C100.462 10.6673 101.234 11.6211 102.777 11.6211C103.519 11.6211 104.245 11.4453 104.954 11.0938V6.03516ZM107.542 13.1836C107.542 16.1784 105.742 17.6758 102.142 17.6758C100.879 17.6758 99.759 17.513 98.7824 17.1875V15.1367C99.7785 15.4622 100.905 15.625 102.161 15.625C104.023 15.625 104.954 14.8438 104.954 13.2812C104.186 13.6068 103.359 13.7695 102.474 13.7695C99.427 13.7695 97.9035 12.1061 97.9035 8.7793C97.9035 5.40039 99.6776 3.71094 103.226 3.71094C104.417 3.71094 105.856 3.85091 107.542 4.13086V13.1836Z" fill="#1A1A1A"/>
<path d="M86.4145 13.9648V3.71094H88.4164L88.7387 5.21484C89.7217 4.21224 90.8415 3.71094 92.098 3.71094C94.5264 3.71094 95.7406 4.97396 95.7406 7.5V13.9648H93.1527V7.5C93.1527 6.36719 92.5896 5.80078 91.4633 5.80078C90.6234 5.80078 89.8031 6.13607 89.0023 6.80664V13.9648H86.4145Z" fill="#1A1A1A"/>
<path d="M83.7633 0V2.05078H81.1754V0H83.7633ZM83.7633 3.71094V13.9648H81.1754V3.71094H83.7633Z" fill="#1A1A1A"/>
<path d="M72.0789 11.7188C74.976 11.7188 76.4246 10.013 76.4246 6.60156C76.4246 3.69792 74.976 2.24609 72.0789 2.24609H69.198V11.7188H72.0789ZM66.6102 13.9648V0H72.0789C76.7013 0 79.0125 2.20052 79.0125 6.60156C79.0125 11.5104 76.7013 13.9648 72.0789 13.9648H66.6102Z" fill="#1A1A1A"/>
<path d="M49.9895 10.7715C49.9895 8.73372 51.4738 7.71484 54.4426 7.71484C55.1392 7.71484 55.8358 7.77995 56.5324 7.91016V7.13867C56.5324 6.2207 55.8716 5.76172 54.55 5.76172C53.4302 5.76172 52.1867 5.92448 50.8195 6.25V4.19922C52.1867 3.8737 53.4302 3.71094 54.55 3.71094C57.5969 3.71094 59.1203 4.83724 59.1203 7.08984V13.9648H57.6164L56.6984 13.0469C55.8065 13.6589 54.8234 13.9648 53.7492 13.9648C51.2427 13.9648 49.9895 12.9004 49.9895 10.7715ZM56.5324 9.66797C55.8814 9.53776 55.1848 9.47266 54.4426 9.47266C53.1991 9.47266 52.5773 9.89583 52.5773 10.7422C52.5773 11.6536 53.0982 12.1094 54.1398 12.1094C54.9992 12.1094 55.7967 11.8424 56.5324 11.3086V9.66797Z" fill="#1A1A1A"/>
<path d="M45.2484 6.38672C44.7146 6.03516 44.044 5.85938 43.2367 5.85938C41.6286 5.85938 40.8246 6.76107 40.8246 8.56445C40.8246 10.7064 41.6612 11.7773 43.3344 11.7773C44.0115 11.7773 44.6495 11.6829 45.2484 11.4941V6.38672ZM47.8363 13.3496C46.2673 13.7598 44.7341 13.9648 43.2367 13.9648C39.9229 13.9648 38.266 12.1875 38.266 8.63281C38.266 5.35156 39.8871 3.71094 43.1293 3.71094C43.8194 3.71094 44.5258 3.8737 45.2484 4.19922V0H47.8363V13.3496Z" fill="#1A1A1A"/>
<path d="M26.777 13.9648V3.71094H28.7789L29.1012 5.21484C30.0842 4.21224 31.204 3.71094 32.4605 3.71094C34.8889 3.71094 36.1031 4.97396 36.1031 7.5V13.9648H33.5152V7.5C33.5152 6.36719 32.9521 5.80078 31.8258 5.80078C30.9859 5.80078 30.1656 6.13607 29.3648 6.80664V13.9648H26.777Z" fill="#1A1A1A"/>
<path d="M17.0555 8.79883C17.0555 10.9408 17.8855 12.0117 19.5457 12.0117C21.2059 12.0117 22.0359 10.9408 22.0359 8.79883C22.0359 6.70898 21.2059 5.66406 19.5457 5.66406C17.8855 5.66406 17.0555 6.70898 17.0555 8.79883ZM14.4676 8.83789C14.4676 5.40039 16.1603 3.68164 19.5457 3.68164C22.9311 3.68164 24.6238 5.40039 24.6238 8.83789C24.6238 12.2689 22.9311 13.9844 19.5457 13.9844C16.1733 13.9844 14.4806 12.2689 14.4676 8.83789Z" fill="#1A1A1A"/>
<path d="M0 13.9648V0H2.58789V5.76172H9.47266V0H12.0605V13.9648H9.47266V8.00781H2.58789V13.9648H0Z" fill="#1A1A1A"/>
</svg>
