<svg width="22" height="22" viewBox="0 0 22 22" fill="none" xmlns="http://www.w3.org/2000/svg">
<g clip-path="url(#clip0_224_1363)">
<path d="M17.7466 6.41667H16.4999V4.58333C16.5198 4.11797 16.3544 3.66369 16.04 3.32004C15.7256 2.9764 15.2877 2.77141 14.8224 2.75H7.17744C6.71214 2.77141 6.2743 2.9764 5.95986 3.32004C5.64542 3.66369 5.48004 4.11797 5.49994 4.58333V6.41667H4.25327C3.60817 6.42151 2.99129 6.6818 2.53771 7.14054C2.08413 7.59927 1.83083 8.21906 1.83327 8.86417V14.9692C1.83083 15.6143 2.08413 16.2341 2.53771 16.6928C2.99129 17.1515 3.60817 17.4118 4.25327 17.4167H5.0416C5.0416 17.9029 5.23476 18.3692 5.57857 18.713C5.92239 19.0568 6.38871 19.25 6.87494 19.25H15.1249C15.6112 19.25 16.0775 19.0568 16.4213 18.713C16.7651 18.3692 16.9583 17.9029 16.9583 17.4167H17.7466C18.3917 17.4118 19.0086 17.1515 19.4622 16.6928C19.9157 16.2341 20.169 15.6143 20.1666 14.9692V8.86417C20.169 8.21906 19.9157 7.59927 19.4622 7.14054C19.0086 6.6818 18.3917 6.42151 17.7466 6.41667ZM7.33327 4.58333H14.6666V6.41667H7.33327V4.58333ZM6.87494 17.4167V13.75H15.1249V17.4167H6.87494ZM18.3333 14.9692C18.3357 15.1281 18.2756 15.2816 18.1658 15.3965C18.056 15.5114 17.9055 15.5785 17.7466 15.5833H16.9583V13.75C16.9583 13.2638 16.7651 12.7975 16.4213 12.4536C16.0775 12.1098 15.6112 11.9167 15.1249 11.9167H6.87494C6.38871 11.9167 5.92239 12.1098 5.57857 12.4536C5.23476 12.7975 5.0416 13.2638 5.0416 13.75V15.5833H4.25327C4.09441 15.5785 3.94382 15.5114 3.83405 15.3965C3.72427 15.2816 3.66412 15.1281 3.6666 14.9692V8.86417C3.66412 8.70526 3.72427 8.55175 3.83405 8.43683C3.94382 8.32191 4.09441 8.2548 4.25327 8.25H17.7466C17.9055 8.2548 18.056 8.32191 18.1658 8.43683C18.2756 8.55175 18.3357 8.70526 18.3333 8.86417V14.9692Z" fill="black"/>
</g>
<defs>
<clipPath id="clip0_224_1363">
<rect width="22" height="22" fill="white"/>
</clipPath>
</defs>
</svg>
