<svg width="20" height="21" viewBox="0 0 20 21" fill="none" xmlns="http://www.w3.org/2000/svg">
<path d="M15.1166 18.5156C14.3833 18.7323 13.5166 18.8323 12.5 18.8323H7.49997C6.4833 18.8323 5.61663 18.7323 4.8833 18.5156C5.06663 16.349 7.29163 14.6406 9.99997 14.6406C12.7083 14.6406 14.9333 16.349 15.1166 18.5156V18.5156Z" stroke="#828282" stroke-width="1.5" stroke-linecap="round" stroke-linejoin="round"/>
<path d="M12.4998 2.16602H7.49984C3.33317 2.16602 1.6665 3.83268 1.6665 7.99935V12.9993C1.6665 16.1493 2.6165 17.8743 4.88317 18.516C5.0665 16.3493 7.2915 14.641 9.99984 14.641C12.7082 14.641 14.9332 16.3493 15.1165 18.516C17.3832 17.8743 18.3332 16.1493 18.3332 12.9993V7.99935C18.3332 3.83268 16.6665 2.16602 12.4998 2.16602ZM9.99984 12.3077C8.34984 12.3077 7.0165 10.966 7.0165 9.31602C7.0165 7.66602 8.34984 6.33268 9.99984 6.33268C11.6498 6.33268 12.9832 7.66602 12.9832 9.31602C12.9832 10.966 11.6498 12.3077 9.99984 12.3077Z" stroke="#828282" stroke-width="1.5" stroke-linecap="round" stroke-linejoin="round"/>
<path d="M12.9833 9.31536C12.9833 10.9654 11.6499 12.307 9.99993 12.307C8.34993 12.307 7.0166 10.9654 7.0166 9.31536C7.0166 7.66536 8.34993 6.33203 9.99993 6.33203C11.6499 6.33203 12.9833 7.66536 12.9833 9.31536Z" stroke="#828282" stroke-width="1.5" stroke-linecap="round" stroke-linejoin="round"/>
</svg>
