<svg width="25" height="24" viewBox="0 0 25 24" fill="none" xmlns="http://www.w3.org/2000/svg">
<path d="M20.8337 21.5832V4.33317C20.8337 3.27613 19.8993 2.4165 18.7503 2.4165H6.25033C5.10137 2.4165 4.16699 3.27613 4.16699 4.33317V21.5832L12.5003 17.2017L20.8337 21.5832ZM6.25033 10.0832V4.33317H18.7503V18.2798L12.5003 14.9946L6.25033 18.2798V10.0832Z" fill="#4F4F4F"/>
<path d="M16.0513 9.61561C16.4273 9.25911 16.6607 8.76461 16.6607 8.22028C16.6607 7.67594 16.4284 7.1824 16.0513 6.82495C15.861 6.6426 15.6326 6.49744 15.3799 6.39815C15.1272 6.29886 14.8553 6.24747 14.5805 6.24707C14.5805 6.24707 13.543 6.2442 12.5003 7.2332C11.4576 6.2442 10.4201 6.24707 10.4201 6.24707C9.84505 6.24707 9.32526 6.46749 8.94922 6.82495C8.57214 7.1824 8.33984 7.67499 8.33984 8.22028C8.33984 8.76557 8.57214 9.25911 8.94922 9.61561L12.5003 13.1528L16.0513 9.61561Z" fill="#4F4F4F"/>
</svg>
