<svg width="20" height="20" viewBox="0 0 20 20" fill="none" xmlns="http://www.w3.org/2000/svg">
<path d="M2.84484 11.4821L1.6665 12.6605L5.79067 14.428L7.559 18.553L8.73734 17.3746L8.14817 14.428L10.909 11.6671L13.9173 18.0871L15.0332 16.9713L14.0415 8.53548L16.3982 6.17798C16.5574 6.02424 16.6843 5.84033 16.7717 5.63699C16.859 5.43365 16.905 5.21495 16.9069 4.99365C16.9088 4.77235 16.8667 4.55288 16.7829 4.34806C16.6991 4.14323 16.5753 3.95714 16.4188 3.80066C16.2623 3.64417 16.0763 3.52041 15.8714 3.43661C15.6666 3.35281 15.4471 3.31064 15.2258 3.31256C15.0045 3.31449 14.7858 3.36046 14.5825 3.44781C14.3792 3.53516 14.1952 3.66213 14.0415 3.82131L11.6223 6.24048L3.1865 5.24798L2.13234 6.30298L8.50234 9.36131L5.7915 12.0721L2.84484 11.4821Z" fill="#4F4F4F"/>
</svg>
