<svg width="99" height="20" viewBox="0 0 99 20" fill="none" xmlns="http://www.w3.org/2000/svg">
<path d="M11.9924 14.1668L6.11804 17.1585L7.71505 11.5752L2.48828 7.84183L9.34904 7.3835L11.9924 2.0835L14.6358 7.3835L21.4975 7.84183L16.2698 11.5752L17.8668 17.1585L11.9924 14.1668Z" fill="#F2994A"/>
<path d="M33.5788 14.1668L27.7045 17.1585L29.3015 11.5752L24.0747 7.84183L30.9355 7.3835L33.5788 2.0835L36.2222 7.3835L43.084 7.84183L37.8562 11.5752L39.4532 17.1585L33.5788 14.1668Z" fill="#F2994A"/>
<path d="M55.1662 14.1668L49.2919 17.1585L50.8889 11.5752L45.6621 7.84183L52.5229 7.3835L55.1662 2.0835L57.8096 7.3835L64.6714 7.84183L59.4436 11.5752L61.0406 17.1585L55.1662 14.1668Z" fill="#F2994A"/>
<path d="M76.7527 14.1668L70.8783 17.1585L72.4753 11.5752L67.2485 7.84183L74.1093 7.3835L76.7527 2.0835L79.396 7.3835L86.2578 7.84183L81.03 11.5752L82.627 17.1585L76.7527 14.1668Z" fill="#F2994A"/>
<g clip-path="url(#clip0_192_694)">
<path d="M98.3391 14.1668L92.4647 17.1585L94.0617 11.5752L88.835 7.84183L95.6957 7.3835L98.3391 2.0835L100.982 7.3835L107.844 7.84183L102.616 11.5752L104.213 17.1585L98.3391 14.1668Z" fill="#F2994A"/>
</g>
<defs>
<clipPath id="clip0_192_694">
<rect width="11.9926" height="20" fill="white" transform="translate(86.3467)"/>
</clipPath>
</defs>
</svg>
