<svg width="20" height="20" viewBox="0 0 20 20" fill="none" xmlns="http://www.w3.org/2000/svg">
<path d="M10.0004 11.1917C10.3418 11.1917 10.6799 11.1244 10.9954 10.9938C11.3108 10.8631 11.5974 10.6716 11.8389 10.4302C12.0803 10.1887 12.2718 9.90212 12.4025 9.58668C12.5331 9.27123 12.6004 8.93314 12.6004 8.5917C12.6004 8.25026 12.5331 7.91217 12.4025 7.59672C12.2718 7.28128 12.0803 6.99465 11.8389 6.75322C11.5974 6.51179 11.3108 6.32027 10.9954 6.18961C10.6799 6.05895 10.3418 5.9917 10.0004 5.9917C9.31083 5.9917 8.64951 6.26563 8.16191 6.75322C7.67432 7.24082 7.40039 7.90214 7.40039 8.5917C7.40039 9.28126 7.67432 9.94258 8.16191 10.4302C8.64951 10.9178 9.31083 11.1917 10.0004 11.1917V11.1917Z" stroke="#9E8D5F" stroke-width="1.5"/>
<path d="M3.01675 7.07484C4.65842 -0.141828 15.3501 -0.133494 16.9834 7.08317C17.9417 11.3165 15.3084 14.8998 13.0001 17.1165C12.1935 17.8945 11.1165 18.3292 9.99592 18.3292C8.87529 18.3292 7.79835 17.8945 6.99175 17.1165C4.69175 14.8998 2.05842 11.3082 3.01675 7.07484V7.07484Z" stroke="#9E8D5F" stroke-width="1.5"/>
</svg>
