<svg width="78" height="15" viewBox="0 0 78 15" fill="none" xmlns="http://www.w3.org/2000/svg">
<path d="M6.53777 1.62081C6.70788 1.20832 7.29212 1.20832 7.46223 1.62081L8.88448 5.06943C8.95481 5.23996 9.11332 5.35791 9.29687 5.3763L12.898 5.73711C13.3264 5.78003 13.5038 6.30816 13.1884 6.60105L10.4417 9.15106C10.3129 9.27067 10.2563 9.44914 10.2927 9.62111L11.0834 13.3535C11.1746 13.7843 10.7047 14.1142 10.3305 13.8819L7.2637 11.9781C7.10219 11.8779 6.8978 11.8779 6.7363 11.9781L3.66949 13.8819C3.29533 14.1142 2.82537 13.7843 2.91664 13.3535L3.70727 9.62111C3.7437 9.44914 3.68715 9.27067 3.55832 9.15106L0.811641 6.60105C0.49616 6.30816 0.673648 5.78003 1.10198 5.73711L4.70313 5.3763C4.88668 5.35791 5.04519 5.23996 5.11552 5.06943L6.53777 1.62081Z" fill="#FBBC04"/>
<path d="M22.5378 1.62081C22.7079 1.20832 23.2921 1.20832 23.4622 1.62081L24.8845 5.06943C24.9548 5.23996 25.1133 5.35791 25.2969 5.3763L28.898 5.73711C29.3264 5.78003 29.5038 6.30816 29.1884 6.60105L26.4417 9.15106C26.3129 9.27067 26.2563 9.44914 26.2927 9.62111L27.0834 13.3535C27.1746 13.7843 26.7047 14.1142 26.3305 13.8819L23.2637 11.9781C23.1022 11.8779 22.8978 11.8779 22.7363 11.9781L19.6695 13.8819C19.2953 14.1142 18.8254 13.7843 18.9166 13.3535L19.7073 9.62111C19.7437 9.44914 19.6871 9.27067 19.5583 9.15106L16.8116 6.60105C16.4962 6.30816 16.6736 5.78003 17.102 5.73711L20.7031 5.3763C20.8867 5.35791 21.0452 5.23996 21.1155 5.06943L22.5378 1.62081Z" fill="#FBBC04"/>
<path d="M38.5378 1.62081C38.7079 1.20832 39.2921 1.20832 39.4622 1.62081L40.8845 5.06943C40.9548 5.23996 41.1133 5.35791 41.2969 5.3763L44.898 5.73711C45.3264 5.78003 45.5038 6.30816 45.1884 6.60105L42.4417 9.15106C42.3129 9.27067 42.2563 9.44914 42.2927 9.62111L43.0834 13.3535C43.1746 13.7843 42.7047 14.1142 42.3305 13.8819L39.2637 11.9781C39.1022 11.8779 38.8978 11.8779 38.7363 11.9781L35.6695 13.8819C35.2953 14.1142 34.8254 13.7843 34.9166 13.3535L35.7073 9.62111C35.7437 9.44914 35.6871 9.27067 35.5583 9.15106L32.8116 6.60105C32.4962 6.30816 32.6736 5.78003 33.102 5.73711L36.7031 5.3763C36.8867 5.35791 37.0452 5.23996 37.1155 5.06943L38.5378 1.62081Z" fill="#DBDCE0"/>
<path d="M54.5378 1.62081C54.7079 1.20832 55.2921 1.20832 55.4622 1.62081L56.8845 5.06943C56.9548 5.23996 57.1133 5.35791 57.2969 5.3763L60.898 5.73711C61.3264 5.78003 61.5038 6.30816 61.1884 6.60105L58.4417 9.15106C58.3129 9.27067 58.2563 9.44914 58.2927 9.62111L59.0834 13.3535C59.1746 13.7843 58.7047 14.1142 58.3305 13.8819L55.2637 11.9781C55.1022 11.8779 54.8978 11.8779 54.7363 11.9781L51.6695 13.8819C51.2953 14.1142 50.8254 13.7843 50.9166 13.3535L51.7073 9.62111C51.7437 9.44914 51.6871 9.27067 51.5583 9.15106L48.8116 6.60105C48.4962 6.30816 48.6736 5.78003 49.102 5.73711L52.7031 5.3763C52.8867 5.35791 53.0452 5.23996 53.1155 5.06943L54.5378 1.62081Z" fill="#DBDCE0"/>
<path d="M70.5378 1.62081C70.7079 1.20832 71.2921 1.20832 71.4622 1.62081L72.8845 5.06943C72.9548 5.23996 73.1133 5.35791 73.2969 5.3763L76.898 5.73711C77.3264 5.78003 77.5038 6.30816 77.1884 6.60105L74.4417 9.15106C74.3129 9.27067 74.2563 9.44914 74.2927 9.62111L75.0834 13.3535C75.1746 13.7843 74.7047 14.1142 74.3305 13.8819L71.2637 11.9781C71.1022 11.8779 70.8978 11.8779 70.7363 11.9781L67.6695 13.8819C67.2953 14.1142 66.8254 13.7843 66.9166 13.3535L67.7073 9.62111C67.7437 9.44914 67.6871 9.27067 67.5583 9.15106L64.8116 6.60105C64.4962 6.30816 64.6736 5.78003 65.102 5.73711L68.7031 5.3763C68.8867 5.35791 69.0452 5.23996 69.1155 5.06943L70.5378 1.62081Z" fill="#DBDCE0"/>
</svg>
