<svg width="22" height="22" viewBox="0 0 22 22" fill="none" xmlns="http://www.w3.org/2000/svg">
<g clip-path="url(#clip0_224_1368)">
<path d="M16.5 3.66683H15.5833V2.75016C15.5833 2.50705 15.4868 2.27389 15.3148 2.10198C15.1429 1.93007 14.9098 1.8335 14.6667 1.8335C14.4236 1.8335 14.1904 1.93007 14.0185 2.10198C13.8466 2.27389 13.75 2.50705 13.75 2.75016V3.66683H8.25V2.75016C8.25 2.50705 8.15342 2.27389 7.98151 2.10198C7.80961 1.93007 7.57645 1.8335 7.33333 1.8335C7.09022 1.8335 6.85706 1.93007 6.68515 2.10198C6.51324 2.27389 6.41667 2.50705 6.41667 2.75016V3.66683H5.5C4.77065 3.66683 4.07118 3.95656 3.55546 4.47229C3.03973 4.98801 2.75 5.68748 2.75 6.41683V17.4168C2.75 18.1462 3.03973 18.8456 3.55546 19.3614C4.07118 19.8771 4.77065 20.1668 5.5 20.1668H16.5C17.2293 20.1668 17.9288 19.8771 18.4445 19.3614C18.9603 18.8456 19.25 18.1462 19.25 17.4168V6.41683C19.25 5.68748 18.9603 4.98801 18.4445 4.47229C17.9288 3.95656 17.2293 3.66683 16.5 3.66683ZM5.5 5.50016H6.41667V6.41683C6.41667 6.65994 6.51324 6.8931 6.68515 7.06501C6.85706 7.23692 7.09022 7.3335 7.33333 7.3335C7.57645 7.3335 7.80961 7.23692 7.98151 7.06501C8.15342 6.8931 8.25 6.65994 8.25 6.41683V5.50016H13.75V6.41683C13.75 6.65994 13.8466 6.8931 14.0185 7.06501C14.1904 7.23692 14.4236 7.3335 14.6667 7.3335C14.9098 7.3335 15.1429 7.23692 15.3148 7.06501C15.4868 6.8931 15.5833 6.65994 15.5833 6.41683V5.50016H16.5C16.7431 5.50016 16.9763 5.59674 17.1482 5.76865C17.3201 5.94056 17.4167 6.17371 17.4167 6.41683V10.0835H4.58333V6.41683C4.58333 6.17371 4.67991 5.94056 4.85182 5.76865C5.02373 5.59674 5.25688 5.50016 5.5 5.50016ZM16.5 18.3335H5.5C5.25688 18.3335 5.02373 18.2369 4.85182 18.065C4.67991 17.8931 4.58333 17.6599 4.58333 17.4168V11.9168H17.4167V17.4168C17.4167 17.6599 17.3201 17.8931 17.1482 18.065C16.9763 18.2369 16.7431 18.3335 16.5 18.3335Z" fill="black"/>
<path d="M7.33341 15.5833C7.83968 15.5833 8.25008 15.1729 8.25008 14.6667C8.25008 14.1604 7.83968 13.75 7.33341 13.75C6.82715 13.75 6.41675 14.1604 6.41675 14.6667C6.41675 15.1729 6.82715 15.5833 7.33341 15.5833Z" fill="black"/>
<path d="M14.6666 13.75H10.9999C10.7568 13.75 10.5236 13.8466 10.3517 14.0185C10.1798 14.1904 10.0833 14.4236 10.0833 14.6667C10.0833 14.9098 10.1798 15.1429 10.3517 15.3148C10.5236 15.4868 10.7568 15.5833 10.9999 15.5833H14.6666C14.9097 15.5833 15.1429 15.4868 15.3148 15.3148C15.4867 15.1429 15.5833 14.9098 15.5833 14.6667C15.5833 14.4236 15.4867 14.1904 15.3148 14.0185C15.1429 13.8466 14.9097 13.75 14.6666 13.75Z" fill="black"/>
</g>
<defs>
<clipPath id="clip0_224_1368">
<rect width="22" height="22" fill="white"/>
</clipPath>
</defs>
</svg>
