<svg width="68" height="20" viewBox="0 0 68 20" fill="none" xmlns="http://www.w3.org/2000/svg">
<path d="M11.9924 14.1668L6.11804 17.1585L7.71505 11.5752L2.48828 7.84183L9.34904 7.3835L11.9924 2.0835L14.6358 7.3835L21.4975 7.84183L16.2698 11.5752L17.8668 17.1585L11.9924 14.1668Z" fill="#F2994A"/>
<path d="M33.5788 14.1668L27.7045 17.1585L29.3015 11.5752L24.0747 7.84183L30.9355 7.3835L33.5788 2.0835L36.2222 7.3835L43.084 7.84183L37.8562 11.5752L39.4532 17.1585L33.5788 14.1668Z" fill="#F2994A"/>
<path d="M55.1662 14.1668L49.2919 17.1585L50.8889 11.5752L45.6621 7.84183L52.5229 7.3835L55.1662 2.0835L57.8096 7.3835L64.6714 7.84183L59.4436 11.5752L61.0406 17.1585L55.1662 14.1668Z" fill="#F2994A"/>
</svg>
