<svg width="24" height="20" viewBox="0 0 24 20" fill="none" xmlns="http://www.w3.org/2000/svg">
<path d="M7.5 11.6667C8.88071 11.6667 10 10.7339 10 9.58333C10 8.43274 8.88071 7.5 7.5 7.5C6.11929 7.5 5 8.43274 5 9.58333C5 10.7339 6.11929 11.6667 7.5 11.6667Z" fill="#4F4F4F"/>
<path d="M17.205 5.83333H12C11.7348 5.83333 11.4804 5.92113 11.2929 6.07741C11.1054 6.23369 11 6.44565 11 6.66667V12.5H4V5H2V16.6667H4V14.1667H20V16.6667H22V9.82917C21.9987 8.76974 21.4931 7.75403 20.5941 7.0049C19.6952 6.25578 18.4763 5.83444 17.205 5.83333ZM13 12.5V7.5H17.205C17.946 7.50066 18.6565 7.74627 19.1805 8.18293C19.7045 8.61959 19.9992 9.21164 20 9.82917V12.5H13Z" fill="#4F4F4F"/>
</svg>
