<svg width="20" height="21" viewBox="0 0 20 21" fill="none" xmlns="http://www.w3.org/2000/svg">
<path d="M6.25033 12.25C7.40092 12.25 8.33366 11.2706 8.33366 10.0625C8.33366 8.85438 7.40092 7.875 6.25033 7.875C5.09973 7.875 4.16699 8.85438 4.16699 10.0625C4.16699 11.2706 5.09973 12.25 6.25033 12.25Z" fill="#4F4F4F"/>
<path d="M14.3378 6.125H10.0003C9.77931 6.125 9.56735 6.21719 9.41107 6.38128C9.25479 6.54538 9.16699 6.76794 9.16699 7V13.125H3.33366V5.25H1.66699V17.5H3.33366V14.875H16.667V17.5H18.3337V10.3206C18.3326 9.20823 17.9112 8.14173 17.1621 7.35515C16.413 6.56857 15.3972 6.12616 14.3378 6.125ZM10.8337 13.125V7.875H14.3378C14.9554 7.87569 15.5474 8.13358 15.9841 8.59207C16.4207 9.05057 16.6663 9.67222 16.667 10.3206V13.125H10.8337Z" fill="#4F4F4F"/>
</svg>
