<svg width="14" height="14" viewBox="0 0 14 14" fill="none" xmlns="http://www.w3.org/2000/svg">
<path d="M9.58446 6.9133C10.6899 6.9133 11.599 5.94537 11.599 4.71212C11.599 3.51327 10.685 2.55518 9.58446 2.55518C8.4888 2.55518 7.57001 3.5231 7.57492 4.71704C7.57984 5.94537 8.47898 6.9133 9.58446 6.9133ZM3.87027 7.0263C4.83328 7.0263 5.61942 6.17629 5.61942 5.10519C5.61942 4.05865 4.82345 3.2283 3.87027 3.2283C2.91708 3.2283 2.11621 4.06848 2.11621 5.11011C2.12112 6.17629 2.90726 7.0263 3.87027 7.0263ZM1.20725 11.522H4.80872C4.26333 10.7555 4.75467 9.2815 5.93878 8.32834C5.41306 8.00405 4.70554 7.7633 3.87027 7.7633C1.7084 7.7633 0.229492 9.35526 0.229492 10.6425C0.229492 11.1978 0.480072 11.522 1.20725 11.522ZM6.56277 11.522H12.6062C13.4758 11.522 13.7657 11.237 13.7657 10.7506C13.7657 9.49281 12.1345 7.77312 9.58446 7.77312C7.03937 7.77312 5.40323 9.49281 5.40323 10.7506C5.40323 11.237 5.69312 11.522 6.56277 11.522Z" fill="#37352F" fill-opacity="0.45"/>
</svg>
