<svg width="14" height="14" viewBox="0 0 14 14" fill="none" xmlns="http://www.w3.org/2000/svg">
<g clip-path="url(#clip0_210_5572)">
<path d="M7.00012 13.2351C10.3796 13.2351 13.1789 10.4418 13.1789 7.05627C13.1789 3.67676 10.3796 0.877441 6.99414 0.877441C3.61462 0.877441 0.821289 3.67676 0.821289 7.05627C0.821289 10.4418 3.62061 13.2351 7.00012 13.2351ZM7.00012 12.0209C4.24866 12.0209 2.04151 9.80775 2.04151 7.05627C2.04151 4.30481 4.24267 2.09766 6.99414 2.09766C9.74561 2.09766 11.9587 4.30481 11.9647 7.05627C11.9647 9.80775 9.75156 12.0209 7.00012 12.0209ZM3.86585 5.91382H10.1404C10.4395 5.91382 10.6488 5.7284 10.6488 5.44727C10.6488 5.16614 10.4395 4.97473 10.1404 4.97473H3.86585C3.56677 4.97473 3.3634 5.16614 3.3634 5.44727C3.3634 5.7284 3.56677 5.91382 3.86585 5.91382ZM4.69726 7.89367H9.31493C9.60806 7.89367 9.81736 7.70227 9.81736 7.42115C9.81736 7.14002 9.60806 6.94861 9.31493 6.94861H4.69726C4.3982 6.94861 4.18884 7.14002 4.18884 7.42115C4.18884 7.70227 4.3982 7.89367 4.69726 7.89367ZM5.55859 9.86752H8.44763C8.7467 9.86752 8.9561 9.6821 8.9561 9.40096C8.9561 9.11992 8.7467 8.92846 8.44763 8.92846H5.55859C5.25952 8.92846 5.05017 9.11992 5.05017 9.40096C5.05017 9.6821 5.25952 9.86752 5.55859 9.86752Z" fill="#37352F" fill-opacity="0.45"/>
</g>
<defs>
<clipPath id="clip0_210_5572">
<rect width="14" height="14" fill="white"/>
</clipPath>
</defs>
</svg>
