<svg width="20" height="20" viewBox="0 0 20 20" fill="none" xmlns="http://www.w3.org/2000/svg">
<g clip-path="url(#clip0_224_1384)">
<path d="M3.33333 6.66667C3.79357 6.66667 4.16667 6.29357 4.16667 5.83333C4.16667 5.3731 3.79357 5 3.33333 5C2.8731 5 2.5 5.3731 2.5 5.83333C2.5 6.29357 2.8731 6.66667 3.33333 6.66667Z" fill="black"/>
<path d="M3.33333 10.8332C3.79357 10.8332 4.16667 10.4601 4.16667 9.99984C4.16667 9.5396 3.79357 9.1665 3.33333 9.1665C2.8731 9.1665 2.5 9.5396 2.5 9.99984C2.5 10.4601 2.8731 10.8332 3.33333 10.8332Z" fill="black"/>
<path d="M3.33333 15.0002C3.79357 15.0002 4.16667 14.6271 4.16667 14.1668C4.16667 13.7066 3.79357 13.3335 3.33333 13.3335C2.8731 13.3335 2.5 13.7066 2.5 14.1668C2.5 14.6271 2.8731 15.0002 3.33333 15.0002Z" fill="black"/>
<path d="M16.7166 9.1665H6.61659C6.18396 9.1665 5.83325 9.51721 5.83325 9.94984V10.0498C5.83325 10.4825 6.18396 10.8332 6.61659 10.8332H16.7166C17.1492 10.8332 17.4999 10.4825 17.4999 10.0498V9.94984C17.4999 9.51721 17.1492 9.1665 16.7166 9.1665Z" fill="black"/>
<path d="M16.7166 13.3335H6.61659C6.18396 13.3335 5.83325 13.6842 5.83325 14.1168V14.2168C5.83325 14.6495 6.18396 15.0002 6.61659 15.0002H16.7166C17.1492 15.0002 17.4999 14.6495 17.4999 14.2168V14.1168C17.4999 13.6842 17.1492 13.3335 16.7166 13.3335Z" fill="black"/>
<path d="M16.7166 5H6.61659C6.18396 5 5.83325 5.35071 5.83325 5.78333V5.88333C5.83325 6.31596 6.18396 6.66667 6.61659 6.66667H16.7166C17.1492 6.66667 17.4999 6.31596 17.4999 5.88333V5.78333C17.4999 5.35071 17.1492 5 16.7166 5Z" fill="black"/>
</g>
<defs>
<clipPath id="clip0_224_1384">
<rect width="20" height="20" fill="white"/>
</clipPath>
</defs>
</svg>
