<svg width="20" height="21" viewBox="0 0 20 21" fill="none" xmlns="http://www.w3.org/2000/svg">
<path d="M9.9999 11.6917C10.3413 11.6917 10.6794 11.6244 10.9949 11.4938C11.3103 11.3631 11.5969 11.1716 11.8384 10.9302C12.0798 10.6887 12.2713 10.4021 12.402 10.0867C12.5327 9.77123 12.5999 9.43314 12.5999 9.0917C12.5999 8.75026 12.5327 8.41217 12.402 8.09672C12.2713 7.78128 12.0798 7.49465 11.8384 7.25322C11.5969 7.01179 11.3103 6.82027 10.9949 6.68961C10.6794 6.55895 10.3413 6.4917 9.9999 6.4917C9.31034 6.4917 8.64902 6.76563 8.16142 7.25322C7.67383 7.74082 7.3999 8.40214 7.3999 9.0917C7.3999 9.78126 7.67383 10.4426 8.16142 10.9302C8.64902 11.4178 9.31034 11.6917 9.9999 11.6917V11.6917Z" stroke="#828282" stroke-width="1.5"/>
<path d="M3.01675 7.57484C4.65842 0.358172 15.3501 0.366506 16.9834 7.58317C17.9417 11.8165 15.3084 15.3998 13.0001 17.6165C12.1935 18.3945 11.1165 18.8292 9.99592 18.8292C8.87529 18.8292 7.79835 18.3945 6.99175 17.6165C4.69175 15.3998 2.05842 11.8082 3.01675 7.57484V7.57484Z" stroke="#828282" stroke-width="1.5"/>
</svg>
