<svg width="59" height="12" viewBox="0 0 59 12" fill="none" xmlns="http://www.w3.org/2000/svg">
<path d="M50.5013 11.2002V0.726562H52.4422V4.11035C53.2381 3.70996 54.0755 3.50977 54.9544 3.50977C56.9173 3.50977 57.8988 4.24951 57.8988 5.729C57.8988 6.80322 57.2152 7.64307 55.848 8.24854L58.2357 11.2002H55.8626L53.8558 8.45361V7.55273C55.2572 7.25488 55.9579 6.7666 55.9579 6.08789C55.9579 5.39453 55.494 5.04785 54.5663 5.04785C53.9168 5.04785 53.2088 5.25293 52.4422 5.66309V11.2002H50.5013Z" fill="white"/>
<path d="M48.9196 10.9805C48.2848 11.127 47.6256 11.2002 46.942 11.2002C44.2077 11.2002 42.8405 9.86963 42.8405 7.2085C42.8405 4.74268 44.2077 3.50977 46.942 3.50977C47.6256 3.50977 48.2848 3.58301 48.9196 3.72949V5.26758C48.2848 5.12109 47.6745 5.04785 47.0885 5.04785C45.5504 5.04785 44.7814 5.76807 44.7814 7.2085C44.7814 8.84424 45.5504 9.66211 47.0885 9.66211C47.6745 9.66211 48.2848 9.58887 48.9196 9.44238V10.9805Z" fill="white"/>
<path d="M35.8022 7.32617C35.8022 8.93262 36.4248 9.73584 37.6699 9.73584C38.915 9.73584 39.5375 8.93262 39.5375 7.32617C39.5375 5.75879 38.915 4.9751 37.6699 4.9751C36.4248 4.9751 35.8022 5.75879 35.8022 7.32617ZM33.8613 7.35547C33.8613 4.77734 35.1308 3.48828 37.6699 3.48828C40.2089 3.48828 41.4785 4.77734 41.4785 7.35547C41.4785 9.92871 40.2089 11.2153 37.6699 11.2153C35.1406 11.2153 33.871 9.92871 33.8613 7.35547Z" fill="white"/>
<path d="M32.0891 0.726562V11.2002H30.1482V0.726562H32.0891Z" fill="white"/>
<path d="M23.1612 9.42041C23.6055 9.56201 24.1207 9.63281 24.7066 9.63281C25.8785 9.63281 26.4644 8.80518 26.4644 7.1499C26.4644 5.79736 25.959 5.12109 24.9483 5.12109C24.294 5.12109 23.6983 5.25293 23.1612 5.5166V9.42041ZM21.2203 0.726562H23.1612V4.0957C23.7422 3.70508 24.3892 3.50977 25.1021 3.50977C27.2896 3.50977 28.3833 4.74023 28.3833 7.20117C28.3833 9.86719 27.1309 11.2002 24.626 11.2002C23.5713 11.2002 22.4361 11.0952 21.2203 10.8853V0.726562Z" fill="white"/>
<path d="M12.0873 11.2002V3.50977H13.5887L13.8304 4.6377C14.5677 3.88574 15.4076 3.50977 16.3499 3.50977C18.1712 3.50977 19.0819 4.45703 19.0819 6.35156V11.2002H17.141V6.35156C17.141 5.50195 16.7186 5.07715 15.8739 5.07715C15.244 5.07715 14.6288 5.32861 14.0282 5.83154V11.2002H12.0873Z" fill="white"/>
<path d="M0.764305 7.08398V0.726562H2.70522V7.08398C2.70522 8.75391 3.55972 9.58887 5.2687 9.58887C6.97768 9.58887 7.83218 8.75391 7.83218 7.08398V0.726562H9.77309V7.08398C9.77309 9.87695 8.27163 11.2734 5.2687 11.2734C2.26577 11.2734 0.764305 9.87695 0.764305 7.08398Z" fill="white"/>
</svg>
